<svg width="13" height="19" viewBox="0 0 13 19" fill="none" xmlns="http://www.w3.org/2000/svg">
<path d="M6.54335 0.272461C4.9031 0.272461 3.33002 0.924049 2.17019 2.08388C1.01035 3.24372 0.358765 4.81679 0.358765 6.45705C0.358765 11.4047 5.92489 17.5893 6.54335 17.5893C7.16181 17.5893 12.7279 11.4047 12.7279 6.45705C12.7279 4.81679 12.0763 3.24372 10.9165 2.08388C9.75668 0.924049 8.1836 0.272461 6.54335 0.272461V0.272461ZM6.54335 10.1678C5.80943 10.1678 5.092 9.95017 4.48177 9.54242C3.87154 9.13468 3.39592 8.55514 3.11506 7.87709C2.83421 7.19904 2.76072 6.45293 2.9039 5.73312C3.04708 5.0133 3.4005 4.35211 3.91945 3.83315C4.43841 3.31419 5.0996 2.96078 5.81942 2.8176C6.53923 2.67442 7.28534 2.7479 7.96339 3.02876C8.64144 3.30962 9.22099 3.78523 9.62873 4.39546C10.0365 5.00569 10.2541 5.72313 10.2541 6.45705C10.2541 7.4412 9.86315 8.38504 9.16725 9.08095C8.47135 9.77685 7.5275 10.1678 6.54335 10.1678V10.1678Z" fill="black"/>
</svg>
