<svg width="27" height="26" viewBox="0 0 27 26" fill="none" xmlns="http://www.w3.org/2000/svg">
<path d="M13.83 14C15.2103 14.0903 16.573 13.6503 17.64 12.77C17.998 12.4058 18.2777 11.9722 18.4617 11.4958C18.6457 11.0194 18.7302 10.5103 18.71 10C18.72 9.4832 18.6127 8.97085 18.3962 8.50147C18.1797 8.03209 17.8596 7.61789 17.46 7.29001C16.407 6.58142 15.1452 6.25011 13.88 6.35001C12.6821 6.33113 11.4847 6.41141 10.3 6.59001V12.68H9V13.95H10.3V15H9V16.27H10.3V18.15H12.92V16.25H15.92V15H12.92V14C13.223 14.0207 13.527 14.0207 13.83 14ZM12.93 8.44001C13.281 8.36088 13.6402 8.32395 14 8.33001C15.32 8.33001 16.07 8.97001 16.07 10.05C16.07 11.13 15.22 12 13.81 12C13.5117 12.0095 13.2132 11.9861 12.92 11.93L12.93 8.44001Z" fill="black"/>
<path d="M21.3601 12V1.51C21.3377 1.35405 21.2549 1.21316 21.1295 1.11773C21.0042 1.02231 20.8463 0.980025 20.6901 1H6.24006C6.08379 0.980025 5.92593 1.02231 5.80058 1.11773C5.67522 1.21316 5.59242 1.35405 5.57006 1.51V12C5.5477 12.1559 5.4649 12.2968 5.33955 12.3923C5.21419 12.4877 5.05633 12.53 4.90006 12.51H1.67006C1.11006 12.51 0.800061 13.01 1.15006 13.34L13.0001 24.56C13.142 24.6736 13.3183 24.7355 13.5001 24.7355C13.6818 24.7355 13.8582 24.6736 14.0001 24.56L25.3101 13.32C25.6501 12.98 25.3101 12.5 24.7801 12.5H22.0001C21.8501 12.5121 21.7011 12.4673 21.5826 12.3747C21.4641 12.2821 21.3846 12.1484 21.3601 12V12Z" stroke="black" stroke-width="2" stroke-miterlimit="10"/>
</svg>
