<svg width="27" height="26" viewBox="0 0 27 26" fill="none" xmlns="http://www.w3.org/2000/svg">
<g clip-path="url(#clip0)">
<path d="M4.68995 18.49C4.5334 18.4891 4.37927 18.4514 4.23994 18.38L0.519945 16.43C0.297357 16.3052 0.130907 16.1 0.0546838 15.8565C-0.0215399 15.6129 -0.00176986 15.3494 0.109945 15.12L3.34995 8.92C3.47101 8.69254 3.6752 8.52059 3.91995 8.44C4.16644 8.36739 4.43143 8.39246 4.65995 8.51L8.37994 10.46C8.60253 10.5848 8.76898 10.79 8.84521 11.0335C8.92143 11.2771 8.90166 11.5406 8.78994 11.77L5.54995 18C5.42888 18.2275 5.22469 18.3994 4.97995 18.48C4.88438 18.4983 4.78655 18.5017 4.68995 18.49ZM2.27995 15.16L4.27995 16.16L6.61995 11.68L4.61995 10.68L2.27995 15.16Z" fill="black"/>
<path d="M16.2799 4.61L14.2099 1.37C14.0679 1.15709 13.8495 1.00677 13.5999 0.950001C13.3489 0.898186 13.0876 0.944721 12.8699 1.08L6.99994 4.85C6.78998 4.99437 6.64305 5.21344 6.58916 5.46248C6.53526 5.71152 6.57846 5.97174 6.70994 6.19L8.94994 9.72C9.09203 9.93291 9.31035 10.0832 9.55994 10.14H9.76994C9.95377 10.1387 10.1337 10.0868 10.2899 9.99L16.1799 6.22C16.2192 6.18969 16.256 6.15625 16.2899 6.12L16.2799 4.61ZM10.0599 7.86L8.83994 6L13.0999 3.23L14.3199 5.13L10.0599 7.86Z" fill="black"/>
<path d="M16.2799 11.63L13.5799 13.36L12.3599 11.46L16.2799 8.95V6.64L10.4999 10.34C10.29 10.4844 10.1431 10.7034 10.0892 10.9525C10.0353 11.2015 10.0785 11.4617 10.2099 11.68L12.4699 15.21C12.6143 15.42 12.8334 15.5669 13.0824 15.6208C13.3315 15.6747 13.5917 15.6315 13.8099 15.5L16.2899 13.92L16.2799 11.63Z" fill="black"/>
<path d="M16.2799 17.58L15.8799 16.95L16.2799 16.69V14.39L13.9999 15.84C13.79 15.9844 13.6431 16.2034 13.5892 16.4525C13.5353 16.7015 13.5785 16.9617 13.7099 17.18L15.9999 20.72C16.0784 20.8367 16.1807 20.9355 16.2999 21.01L16.2799 17.58Z" fill="black"/>
<path d="M15.2299 21.94L13.8499 21.22L14.3099 20.34L13.1599 18.34L11.6799 21.16C11.5682 21.3894 11.5484 21.6529 11.6246 21.8965C11.7009 22.14 11.8673 22.3452 12.0899 22.47L15.8099 24.42C15.9492 24.4914 16.1033 24.5291 16.2599 24.53C16.4055 24.5276 16.5488 24.4935 16.6799 24.43L15.2299 21.94Z" fill="black"/>
<path d="M11.78 16L10.07 19.28L8.06998 18.28L10.41 13.8L10.51 13.85L9.32998 11.85C9.25551 11.9167 9.19146 11.9943 9.13998 12.08L5.89998 18.28C5.78827 18.5094 5.7685 18.7729 5.84472 19.0165C5.92095 19.26 6.0874 19.4652 6.30998 19.59L9.99998 21.41C10.1393 21.4814 10.2934 21.5191 10.45 21.52C10.5461 21.5341 10.6438 21.5341 10.74 21.52C10.9847 21.4394 11.1889 21.2675 11.31 21.04L12.9 18.04L11.78 16Z" fill="black"/>
<path d="M25.48 25.72H18.48C18.2148 25.72 17.9604 25.6146 17.7729 25.4271C17.5853 25.2396 17.48 24.9852 17.48 24.72V20.52C17.48 20.2548 17.5853 20.0004 17.7729 19.8129C17.9604 19.6254 18.2148 19.52 18.48 19.52H25.48C25.7452 19.52 25.9996 19.6254 26.1871 19.8129C26.3746 20.0004 26.48 20.2548 26.48 20.52V24.72C26.48 24.9852 26.3746 25.2396 26.1871 25.4271C25.9996 25.6146 25.7452 25.72 25.48 25.72ZM19.48 23.78H24.53V21.52H19.46L19.48 23.78Z" fill="black"/>
<path d="M25.48 19.19H18.48C18.2148 19.19 17.9604 19.0846 17.7729 18.8971C17.5853 18.7096 17.48 18.4552 17.48 18.19V14C17.48 13.7348 17.5853 13.4804 17.7729 13.2929C17.9604 13.1054 18.2148 13 18.48 13H25.48C25.7452 13 25.9996 13.1054 26.1871 13.2929C26.3746 13.4804 26.48 13.7348 26.48 14V18.2C26.4773 18.4635 26.3708 18.7153 26.1836 18.9007C25.9963 19.086 25.7435 19.19 25.48 19.19ZM19.48 17.25H24.53V15H19.46L19.48 17.25Z" fill="black"/>
<path d="M25.48 12.66H18.48C18.2148 12.66 17.9604 12.5546 17.7729 12.3671C17.5853 12.1796 17.48 11.9252 17.48 11.66V7.5C17.48 7.23478 17.5853 6.98043 17.7729 6.79289C17.9604 6.60536 18.2148 6.5 18.48 6.5H25.48C25.7452 6.5 25.9996 6.60536 26.1871 6.79289C26.3746 6.98043 26.48 7.23478 26.48 7.5V11.7C26.4696 11.9582 26.3597 12.2024 26.1733 12.3814C25.9869 12.5604 25.7384 12.6602 25.48 12.66ZM19.48 10.72H24.53V8.47H19.46L19.48 10.72Z" fill="black"/>
<path d="M25.48 6.14H18.48C18.2148 6.14 17.9604 6.03464 17.7729 5.84711C17.5853 5.65957 17.48 5.40522 17.48 5.14V1C17.48 0.734784 17.5853 0.48043 17.7729 0.292893C17.9604 0.105357 18.2148 0 18.48 0L25.48 0C25.7452 0 25.9996 0.105357 26.1871 0.292893C26.3746 0.48043 26.48 0.734784 26.48 1V5.2C26.4647 5.45468 26.3526 5.69388 26.1667 5.86863C25.9808 6.04338 25.7351 6.14046 25.48 6.14ZM19.48 4.2H24.53V1.94H19.46L19.48 4.2Z" fill="black"/>
</g>
<defs>
<clipPath id="clip0">
<rect width="26.45" height="25.72" fill="white"/>
</clipPath>
</defs>
</svg>
