<svg width="20" height="20" viewBox="0 0 20 20" fill="none" xmlns="http://www.w3.org/2000/svg">
<g clip-path="url(#clip0)">
<path fill-rule="evenodd" clip-rule="evenodd" d="M10.6666 16C11.3333 16 11.3333 15.0393 11.3333 14.6667C11.3333 14 12 13.3333 12.6666 13.3333C13.3333 13.3333 14.4766 14.4767 15.3333 15.3333C16 16 16 16 16.6666 16C17.3333 16 18.6666 16 18.6666 16C18.6666 16 20 15.9493 20 14.6667C20 14.25 19.5433 13.5433 18 12C16.6666 10.6667 15.9826 11.3553 18 8.66667C19.2286 7.02933 20.1226 5.546 19.9693 5.118C19.8226 4.70933 16.4053 4.05867 16 4.66667C14.6666 6.66667 14.422 7.15667 14 8C13.3333 9.33333 13.2673 10 12.6666 10C12.0606 10 12 8.706 12 8C12 5.796 12.3193 4.23733 11.3333 4C11.3333 4 9.99997 4 9.3333 4C8.25997 4 7.3333 4.66667 7.3333 4.66667C7.3333 4.66667 6.50597 5.312 6.66664 5.33333C6.8653 5.36 7.99997 5.05733 7.99997 6C7.99997 6.66667 7.99997 7.33333 7.99997 7.33333C7.99997 7.33333 8.00597 10 7.3333 10C6.66664 10 5.3333 7.33333 3.99997 5.33333C3.47664 4.54867 3.3333 4.66667 2.66664 4.66667C1.95197 4.66667 1.33397 4.69467 0.666637 4.69467C-2.99605e-05 4.69467 -0.0853633 5.11933 -2.99381e-05 5.33333C1.3333 8.66667 2.2913 10.76 4.82464 13.3973C7.14797 15.8167 8.69997 15.9453 9.99997 16C10.3333 16.014 9.99997 16 10.6666 16Z" fill="black"/>
</g>
<defs>
<clipPath id="clip0">
<rect width="20" height="20" fill="white"/>
</clipPath>
</defs>
</svg>
