<svg width="20" height="20" viewBox="0 0 20 20" fill="none" xmlns="http://www.w3.org/2000/svg">
<path d="M9.94712 5.89062C7.47799 5.89062 5.43213 7.90121 5.43213 10.4056C5.43213 12.91 7.44271 14.9206 9.94712 14.9206C12.4515 14.9206 14.4621 12.8748 14.4621 10.4056C14.4621 7.93648 12.4163 5.89062 9.94712 5.89062ZM9.94712 13.298C8.35982 13.298 7.0547 11.9929 7.0547 10.4056C7.0547 8.81831 8.35982 7.5132 9.94712 7.5132C11.5344 7.5132 12.8395 8.81831 12.8395 10.4056C12.8395 11.9929 11.5344 13.298 9.94712 13.298Z" fill="black"/>
<path d="M14.6385 6.80757C15.2035 6.80757 15.6615 6.34959 15.6615 5.78465C15.6615 5.2197 15.2035 4.76172 14.6385 4.76172C14.0736 4.76172 13.6156 5.2197 13.6156 5.78465C13.6156 6.34959 14.0736 6.80757 14.6385 6.80757Z" fill="black"/>
<path d="M17.284 3.13957C16.3669 2.18719 15.0618 1.69336 13.5803 1.69336H6.31398C3.2452 1.69336 1.19934 3.73921 1.19934 6.808V14.039C1.19934 15.5558 1.69317 16.8609 2.68082 17.8133C3.6332 18.7304 4.90304 19.189 6.34925 19.189H13.545C15.0618 19.189 16.3316 18.6951 17.2487 17.8133C18.2011 16.8962 18.6949 15.5911 18.6949 14.0743V6.808C18.6949 5.32652 18.2011 4.05667 17.284 3.13957ZM17.1429 14.0743C17.1429 15.1678 16.7549 16.0496 16.12 16.6493C15.4851 17.2489 14.6032 17.5664 13.545 17.5664H6.34925C5.29105 17.5664 4.40922 17.2489 3.7743 16.6493C3.13938 16.0143 2.82192 15.1325 2.82192 14.039V6.808C2.82192 5.7498 3.13938 4.86796 3.7743 4.23304C4.37394 3.63339 5.29105 3.31593 6.34925 3.31593H13.6156C14.6738 3.31593 15.5556 3.63339 16.1905 4.26832C16.7902 4.90324 17.1429 5.78507 17.1429 6.808V14.0743Z" fill="black"/>
</svg>
